<svg width="1190" height="284" viewBox="0 0 1190 284" fill="none" xmlns="http://www.w3.org/2000/svg">
<path d="M102.835 73.7522C106.503 75.4989 109.341 77.9879 111.35 81.2192C113.446 84.4506 114.494 88.1622 114.494 92.3542C114.494 98.2929 112.529 103.489 108.599 107.943C104.669 112.485 99.0795 115.934 91.8308 118.292C84.5821 120.738 76.1545 121.96 66.5478 121.96C51.4391 121.96 37.8588 119.209 25.8068 113.707C13.7548 108.205 5.15247 100.782 -0.000202686 91.4372L7.2048 87.1142C12.4448 95.0616 20.3921 101.262 31.0468 105.716C41.7015 110.17 53.5351 112.397 66.5478 112.397C78.1631 112.397 87.4205 110.563 94.3198 106.895C101.219 103.315 104.669 98.4676 104.669 92.3542C104.669 88.5116 103.228 85.4112 100.346 83.0532C97.4638 80.6952 93.6211 79.5162 88.8178 79.5162H65.8928V70.8702H88.8178C91.0011 70.8702 93.2718 71.0886 95.6298 71.5252C96.2411 65.8486 96.5468 59.8662 96.5468 53.5782V-0.000787497H106.896V53.5782C106.896 61.7876 105.542 68.5122 102.835 73.7522ZM135.885 0.130211H146.496V91.6992H135.885V0.130211ZM218.338 82.5292C218.338 82.7039 218.294 82.8349 218.207 82.9222V85.2802C218.207 97.2449 214.539 106.153 207.203 112.004C199.954 117.943 189.038 121.611 174.453 123.008V114.886C184.496 113.926 192.531 111.393 198.557 107.288C204.583 103.271 207.858 97.4196 208.382 89.7342C201.133 91.4809 194.409 91.3936 188.208 89.4722C181.658 88.1622 176.505 85.1929 172.75 80.5642C168.995 75.9356 167.117 70.1716 167.117 63.2722V62.8792C167.117 55.0192 169.562 48.6876 174.453 43.8842C179.344 39.0809 185.806 36.6792 193.841 36.6792C201.439 36.6792 207.421 38.9936 211.788 43.6222C216.155 48.2509 218.338 54.6699 218.338 62.8792V82.5292ZM176.549 63.2722C176.549 69.2982 178.514 73.9706 182.444 77.2892C186.461 80.6079 192.138 82.2672 199.474 82.2672H208.513V66.8092H208.644V62.8792C208.644 57.2025 207.334 52.8795 204.714 49.9102C202.181 46.9409 198.557 45.4562 193.841 45.4562C188.601 45.4562 184.409 47.0719 181.265 50.3032C178.121 53.4472 176.549 57.6829 176.549 63.0102V63.2722ZM314.392 43.8842C312.645 43.8842 311.117 43.2729 309.807 42.0502C308.584 40.7402 307.973 39.1682 307.973 37.3342C307.973 35.5875 308.584 34.1029 309.807 32.8802C311.117 31.5702 312.689 30.9152 314.523 30.9152C316.269 30.9152 317.754 31.5265 318.977 32.7492C320.287 33.9719 320.942 35.4566 320.942 37.2032C320.942 39.0372 320.287 40.6092 318.977 41.9192C317.754 43.2292 316.226 43.8842 314.392 43.8842ZM377.665 91.6992C373.211 91.6992 369.412 91.2626 366.268 90.3892C363.124 89.5159 360.198 88.1622 357.491 86.3282C355.307 95.2362 350.417 102.092 342.819 106.895C335.221 111.699 325.745 114.1 314.392 114.1C298.846 114.1 285.965 109.603 275.747 100.607C265.616 91.6992 258.935 79.8656 255.704 65.1062L263.695 62.3552C267.101 75.5426 273.214 85.8479 282.035 93.2712C290.943 100.782 301.728 104.537 314.392 104.537C324.959 104.537 333.256 102.092 339.282 97.2012C345.395 92.3106 348.452 85.3239 348.452 76.2412V48.8622H358.801V75.7172V77.6822C364.041 80.6516 370.329 82.1362 377.665 82.1362V91.6992ZM398.974 82.1362V91.6992H376.311V82.1362H398.974ZM419.059 82.1362V91.6992H396.396V82.1362H419.059ZM439.144 82.1362V91.6992H416.481V82.1362H439.144ZM459.228 82.1362V91.6992H436.565V82.1362H459.228ZM479.313 82.1362V91.6992H456.65V82.1362H479.313ZM499.398 82.1362V91.6992H476.735V82.1362H499.398ZM519.483 82.1362V91.6992H496.82V82.1362H519.483ZM539.568 82.1362V91.6992H516.905V82.1362H539.568ZM559.653 82.1362V91.6992H536.99V82.1362H559.653ZM579.738 82.1362V91.6992H557.075V82.1362H579.738ZM599.823 82.1362V91.6992H577.16V82.1362H599.823ZM619.908 82.1362V91.6992H597.245V82.1362H619.908ZM639.993 82.1362V91.6992H617.33V82.1362H639.993ZM660.078 82.1362V91.6992H637.415V82.1362H660.078ZM680.163 82.1362V91.6992H657.5V82.1362H680.163ZM700.248 82.1362V91.6992H677.585V82.1362H700.248ZM720.333 82.1362V91.6992H697.67V82.1362H720.333ZM740.418 82.1362V91.6992H717.755V82.1362H740.418ZM760.503 82.1362V91.6992H737.84V82.1362H760.503ZM780.588 82.1362V91.6992H757.925V82.1362H780.588ZM800.673 82.1362V91.6992H778.01V82.1362H800.673ZM820.758 82.1362V91.6992H798.095V82.1362H820.758ZM840.843 82.1362V91.6992H818.18V82.1362H840.843ZM860.928 82.1362V91.6992H838.265V82.1362H860.928ZM881.013 82.1362V91.6992H858.35V82.1362H881.013ZM901.098 82.1362V91.6992H878.435V82.1362H901.098ZM921.183 82.1362V91.6992H898.52V82.1362H921.183ZM941.268 82.1362V91.6992H918.605V82.1362H941.268ZM961.353 82.1362V91.6992H938.69V82.1362H961.353ZM981.437 82.1362V91.6992H958.774V82.1362H981.437ZM1001.52 82.1362V91.6992H978.859V82.1362H1001.52ZM1021.61 82.1362V91.6992H998.944V82.1362H1021.61ZM1041.69 82.1362V91.6992H1019.03V82.1362H1041.69ZM1061.78 82.1362V91.6992H1039.11V82.1362H1061.78ZM1081.86 82.1362V91.6992H1059.2V82.1362H1081.86ZM1101.95 82.1362V91.6992H1079.28V82.1362H1101.95ZM1122.03 82.1362V91.6992H1099.37V82.1362H1122.03ZM1162.42 38.3822C1172.47 38.3822 1179.45 41.9629 1183.38 49.1242C1187.31 56.2855 1189.36 66.0669 1189.54 78.4682C1188.14 83.7082 1184.69 87.6382 1179.19 90.2582C1173.78 92.7909 1168.19 94.0572 1162.42 94.0572C1158.58 94.0572 1154.61 93.4459 1150.5 92.2232C1146.4 91.0006 1142.99 89.1229 1140.28 86.5902C1135.22 89.9962 1128.71 91.6992 1120.76 91.6992C1119.54 91.6992 1118.84 91.0006 1118.67 89.6032V84.1012C1118.67 82.8786 1119.37 82.2236 1120.76 82.1362C1126.88 82.1362 1131.72 80.9572 1135.31 78.5992V78.4682C1135.48 66.0669 1137.53 56.2855 1141.46 49.1242C1145.39 41.9629 1152.38 38.3822 1162.42 38.3822ZM1179.06 78.5992C1179.41 67.9446 1178.19 60.0846 1175.39 55.0192C1172.68 49.8666 1168.36 47.2902 1162.42 47.2902C1156.48 47.2902 1152.12 49.8666 1149.32 55.0192C1146.61 60.0846 1145.44 67.9446 1145.79 78.5992C1147.1 80.6079 1149.28 82.1799 1152.34 83.3152C1155.48 84.4506 1158.84 85.0182 1162.42 85.0182C1166 85.0182 1169.32 84.4506 1172.38 83.3152C1175.52 82.1799 1177.75 80.6079 1179.06 78.5992ZM117.874 221.699C115.778 221.699 112.722 221.612 108.704 221.437C108.093 232.529 103.814 241.131 95.8662 247.244C87.9189 253.358 77.5262 256.414 64.6882 256.414C49.4922 256.414 36.7415 252.397 26.4362 244.362C16.2182 236.328 9.18788 225.673 5.34521 212.398L13.2052 209.516C17.2225 221.132 23.7289 230.214 32.7242 236.764C41.7195 243.402 52.3742 246.72 64.6882 246.72C74.7316 246.72 82.8536 244.406 89.0542 239.777C95.3422 235.236 98.6172 228.773 98.8792 220.389C89.1852 219.167 80.7576 217.202 73.5962 214.494L76.4782 205.979C82.0676 207.988 88.5302 209.516 95.8662 210.564C103.29 211.612 110.626 212.136 117.874 212.136V221.699ZM55.3872 270.431C57.1339 270.431 58.6185 271.043 59.8412 272.265C61.1512 273.488 61.8062 274.973 61.8062 276.719C61.8062 278.553 61.1512 280.125 59.8412 281.435C58.6185 282.745 57.0902 283.4 55.2562 283.4C53.5096 283.4 51.9812 282.745 50.6712 281.435C49.4486 280.213 48.8372 278.684 48.8372 276.85C48.8372 275.104 49.4486 273.575 50.6712 272.265C51.9812 271.043 53.5532 270.431 55.3872 270.431ZM73.9892 270.431C75.7359 270.431 77.2206 271.043 78.4432 272.265C79.7532 273.488 80.4082 274.973 80.4082 276.719C80.4082 278.553 79.7532 280.125 78.4432 281.435C77.2206 282.745 75.6922 283.4 73.8582 283.4C72.1116 283.4 70.5832 282.745 69.2732 281.435C68.0506 280.213 67.4392 278.684 67.4392 276.85C67.4392 275.104 68.0506 273.575 69.2732 272.265C70.5832 271.043 72.1552 270.431 73.9892 270.431ZM117.923 221.699C116.701 221.699 116.002 221.001 115.827 219.603V214.101C115.827 212.879 116.526 212.224 117.923 212.136H118.054C124.692 212.136 129.277 211.001 131.809 208.73C134.342 206.46 135.608 202.18 135.608 195.892V166.679H146.088V195.892C146.088 205.237 143.905 211.874 139.538 215.804C135.172 219.734 128.01 221.699 118.054 221.699H117.923ZM129.189 236.633C131.023 236.633 132.552 237.288 133.774 238.598C135.084 239.908 135.739 241.48 135.739 243.314C135.739 245.061 135.084 246.546 133.774 247.768C132.552 248.991 131.067 249.602 129.32 249.602C127.486 249.602 125.914 248.947 124.604 247.637C123.382 246.415 122.77 244.93 122.77 243.183C122.77 241.349 123.382 239.777 124.604 238.467C125.914 237.245 127.443 236.633 129.189 236.633ZM210.352 221.699C202.754 221.699 196.51 220.215 191.619 217.245C191.008 228.511 186.903 236.939 179.305 242.528C171.794 248.118 161.271 251.48 147.734 252.615L147.603 244.493C158.694 243.183 167.078 240.17 172.755 235.454C178.432 230.826 181.27 223.708 181.27 214.101V174.146H191.75V207.813C194.37 209.298 197.121 210.39 200.003 211.088C202.972 211.787 206.422 212.136 210.352 212.136V221.699ZM231.514 212.136V221.699H208.851V212.136H231.514ZM251.599 212.136V221.699H228.936V212.136H251.599ZM271.684 212.136V221.699H249.021V212.136H271.684ZM291.769 212.136V221.699H269.106V212.136H291.769ZM373.554 212.136V221.699H369.886C355.913 221.699 344.429 220.084 335.433 216.852C325.565 220.084 313.556 221.699 299.408 221.699H290.5C287.444 221.699 284.955 221.263 283.033 220.389C281.025 219.429 280.02 218.25 280.02 216.852C280.02 215.455 281.025 214.32 283.033 213.446C284.955 212.573 287.444 212.136 290.5 212.136H299.408C308.84 212.136 316.875 211.612 323.512 210.564C314.168 204.014 306.351 193.447 300.063 178.862L302.552 171.788C307.705 169.256 313.163 167.291 318.927 165.893C324.691 164.409 329.975 163.666 334.778 163.666C343.075 163.666 349.581 165.631 354.297 169.561C359.101 173.491 361.546 179.037 361.633 186.198V186.591C361.633 186.591 361.633 186.679 361.633 186.853C361.371 197.159 356.568 205.324 347.223 211.35C353.599 211.874 361.153 212.136 369.886 212.136H373.554ZM310.805 178.207C315.783 191.831 323.163 201.962 332.944 208.599C339.582 206.591 344.385 203.752 347.354 200.084C350.411 196.416 351.939 191.788 351.939 186.198H352.07C351.808 177.465 346.044 173.098 334.778 173.098C327.617 173.098 319.626 174.801 310.805 178.207ZM373.527 221.699C372.13 221.699 371.431 221.001 371.431 219.603V214.101C371.431 212.791 372.13 212.136 373.527 212.136C380.077 212.136 384.662 211.001 387.282 208.73C389.902 206.372 391.212 202.093 391.212 195.892V129.999H401.561V195.892C401.561 205.15 399.334 211.787 394.88 215.804C390.426 219.734 383.308 221.699 373.527 221.699ZM428.716 130.13H439.327V221.699H428.716V130.13ZM543.897 173.884C542.151 173.884 540.622 173.273 539.312 172.05C538.09 170.74 537.478 169.168 537.478 167.334C537.478 165.588 538.09 164.103 539.312 162.88C540.622 161.57 542.194 160.915 544.028 160.915C545.775 160.915 547.26 161.527 548.482 162.749C549.792 163.972 550.447 165.457 550.447 167.203C550.447 169.037 549.792 170.609 548.482 171.919C547.26 173.229 545.731 173.884 543.897 173.884ZM607.17 221.699C602.716 221.699 598.917 221.263 595.773 220.389C592.629 219.516 589.704 218.162 586.996 216.328C584.813 225.236 579.922 232.092 572.324 236.895C564.726 241.699 555.251 244.1 543.897 244.1C528.352 244.1 515.47 239.603 505.252 230.607C495.122 221.699 488.441 209.866 485.209 195.106L493.2 192.355C496.606 205.543 502.72 215.848 511.54 223.271C520.448 230.782 531.234 234.537 543.897 234.537C554.465 234.537 562.761 232.092 568.787 227.201C574.901 222.311 577.957 215.324 577.957 206.241V178.862H588.306V205.717V207.682C593.546 210.652 599.834 212.136 607.17 212.136V221.699ZM665.814 166.679C673.762 166.679 680.137 169.212 684.94 174.277C689.744 179.343 692.189 186.067 692.276 194.451V194.713C692.276 204.931 688.39 212.005 680.617 215.935C672.932 219.778 660.836 221.699 644.33 221.699H607.126C605.904 221.699 605.205 221.001 605.03 219.603V214.101C605.03 212.879 605.729 212.224 607.126 212.136H619.309V212.005V131.047H629.003V158.164C629.003 162.182 628.785 167.291 628.348 173.491C627.999 179.605 627.562 184.888 627.038 189.342C631.23 182.181 636.645 176.635 643.282 172.705C650.007 168.688 657.518 166.679 665.814 166.679ZM681.665 194.451C681.665 188.6 680.137 184.015 677.08 180.696C674.024 177.29 669.875 175.587 664.635 175.587C655.203 175.587 647.125 178.862 640.4 185.412C633.763 191.875 629.309 200.783 627.038 212.136H644.199C653.631 212.136 660.924 211.743 666.076 210.957C671.229 210.171 675.115 208.556 677.735 206.11C680.355 203.578 681.665 199.779 681.665 194.713V194.451ZM772.187 221.699C766.685 221.699 762.319 221.175 759.087 220.127C758.127 230.433 754.022 238.162 746.773 243.314C739.525 248.467 729.132 251.698 715.595 253.008V244.886C725.639 243.926 733.673 241.393 739.699 237.288C745.725 233.271 749 227.42 749.524 219.734C742.276 221.481 735.551 221.394 729.35 219.472C722.8 218.162 717.648 215.193 713.892 210.564C710.137 205.936 708.259 200.172 708.259 193.272V192.879C708.259 185.019 710.705 178.688 715.595 173.884C720.486 169.081 726.949 166.679 734.983 166.679C742.581 166.679 748.564 168.994 752.93 173.622C757.297 178.251 759.48 184.67 759.48 192.879V212.136H772.187V221.699ZM717.691 193.272C717.691 199.298 719.656 203.971 723.586 207.289C727.604 210.608 733.28 212.267 740.616 212.267H749.655V196.809H749.786V192.879C749.786 187.203 748.476 182.88 745.856 179.91C743.324 176.941 739.699 175.456 734.983 175.456C729.743 175.456 725.551 177.072 722.407 180.303C719.263 183.447 717.691 187.683 717.691 193.01V193.272ZM772.156 221.699C770.758 221.699 770.06 221.001 770.06 219.603V214.101C770.06 212.791 770.758 212.136 772.156 212.136C778.706 212.136 783.291 211.001 785.911 208.73C788.531 206.372 789.841 202.093 789.841 195.892V129.999H800.19V195.892C800.19 205.15 797.963 211.787 793.509 215.804C789.055 219.734 781.937 221.699 772.156 221.699ZM827.345 130.13H837.956V221.699H827.345V130.13ZM984.834 174.539V195.892C984.834 204.713 982.869 211.132 978.939 215.149C975.009 219.079 968.634 221.263 959.813 221.699H930.469C918.592 221.699 909.684 218.774 903.745 212.922C897.807 206.984 894.881 198.425 894.968 187.246C894.968 178.95 896.584 170.959 899.815 163.273L908.592 164.845C906.06 172.531 904.706 179.998 904.531 187.246C904.531 195.718 906.627 202.006 910.819 206.11C915.099 210.128 921.649 212.136 930.469 212.136H956.8C961.254 212.136 964.704 211.656 967.149 210.695C969.682 209.735 971.516 208.119 972.651 205.848C973.787 203.49 974.354 200.172 974.354 195.892V174.539H984.834ZM942.259 236.764C944.093 236.764 945.622 237.419 946.844 238.729C948.154 240.039 948.809 241.611 948.809 243.445C948.809 245.192 948.154 246.677 946.844 247.899C945.622 249.122 944.137 249.733 942.39 249.733C940.556 249.733 938.984 249.078 937.674 247.768C936.452 246.546 935.84 245.061 935.84 243.314C935.84 241.48 936.452 239.908 937.674 238.598C938.984 237.376 940.513 236.764 942.259 236.764ZM1036.53 221.699C1026.75 221.699 1019.63 219.734 1015.17 215.804C1010.72 211.787 1008.49 205.15 1008.49 195.892V129.999H1018.84V195.892C1018.84 202.093 1020.15 206.372 1022.77 208.73C1025.39 211.001 1029.98 212.136 1036.53 212.136C1037.92 212.136 1038.62 212.791 1038.62 214.101V219.603C1038.62 221.001 1037.92 221.699 1036.53 221.699ZM1064.75 195.892C1064.75 202.093 1066.06 206.372 1068.68 208.73C1071.3 211.001 1075.89 212.136 1082.44 212.136V221.699C1071.87 221.699 1064.75 218.512 1061.08 212.136C1058.99 215.455 1055.93 217.9 1051.91 219.472C1047.9 220.957 1042.79 221.699 1036.59 221.699C1035.36 221.699 1034.67 221.001 1034.49 219.603V214.101C1034.49 212.879 1035.19 212.224 1036.59 212.136C1043.05 212.136 1047.59 211.001 1050.21 208.73C1052.92 206.46 1054.27 202.311 1054.27 196.285V174.539H1064.75V195.892ZM1059.51 236.764C1061.35 236.764 1062.87 237.419 1064.1 238.729C1065.41 240.039 1066.06 241.611 1066.06 243.445C1066.06 245.192 1065.41 246.677 1064.1 247.899C1062.87 249.122 1061.39 249.733 1059.64 249.733C1057.81 249.733 1056.24 249.078 1054.93 247.768C1053.7 246.546 1053.09 245.061 1053.09 243.314C1053.09 241.48 1053.7 239.908 1054.93 238.598C1056.24 237.376 1057.76 236.764 1059.51 236.764ZM1143.69 146.636C1141.95 146.636 1140.42 146.025 1139.11 144.802C1137.89 143.492 1137.27 141.92 1137.27 140.086C1137.27 138.34 1137.89 136.855 1139.11 135.632C1140.42 134.322 1141.99 133.667 1143.82 133.667C1145.57 133.667 1147.06 134.279 1148.28 135.501C1149.59 136.724 1150.24 138.209 1150.24 139.955C1150.24 141.789 1149.59 143.361 1148.28 144.671C1147.06 145.981 1145.53 146.636 1143.69 146.636ZM1134.39 162.356C1132.65 162.356 1131.12 161.745 1129.81 160.522C1128.58 159.212 1127.97 157.64 1127.97 155.806C1127.97 154.06 1128.58 152.575 1129.81 151.352C1131.12 150.042 1132.69 149.387 1134.52 149.387C1136.27 149.387 1137.75 149.999 1138.98 151.221C1140.29 152.444 1140.94 153.929 1140.94 155.675C1140.94 157.509 1140.29 159.081 1138.98 160.391C1137.75 161.701 1136.23 162.356 1134.39 162.356ZM1146.58 155.806C1146.58 154.06 1147.19 152.575 1148.41 151.352C1149.72 150.042 1151.29 149.387 1153.13 149.387C1154.87 149.387 1156.36 149.999 1157.58 151.221C1158.89 152.444 1159.54 153.929 1159.54 155.675C1159.54 157.509 1158.89 159.081 1157.58 160.391C1156.36 161.701 1154.83 162.356 1152.99 162.356C1151.25 162.356 1149.72 161.745 1148.41 160.522C1147.19 159.212 1146.58 157.64 1146.58 155.806ZM1185.35 165.369V196.547C1185.35 205.106 1183.39 211.438 1179.46 215.542C1175.53 219.647 1169.63 221.699 1161.77 221.699C1153.82 221.699 1148.1 219.123 1144.61 213.97C1140.94 219.123 1134.61 221.699 1125.62 221.699C1115.4 221.699 1108.5 218.468 1104.92 212.005C1100.55 218.468 1092.82 221.699 1081.73 221.699V212.136C1088.54 212.136 1093.61 210.957 1096.93 208.599C1100.33 206.241 1102.04 202.137 1102.04 196.285V177.159H1111.99V198.25C1111.99 203.665 1113 207.377 1115 209.385C1117.1 211.394 1120.64 212.398 1125.62 212.398C1130.42 212.398 1133.78 211.394 1135.7 209.385C1137.71 207.377 1138.72 203.665 1138.72 198.25V177.159H1148.67V196.547C1148.67 202.661 1149.63 206.853 1151.55 209.123C1153.56 211.307 1156.97 212.398 1161.77 212.398C1166.75 212.398 1170.24 211.307 1172.25 209.123C1174.35 206.853 1175.4 202.661 1175.4 196.547V165.369H1185.35Z" fill="white"/>
</svg>
