<svg width="1110" height="284" viewBox="0 0 1110 284" fill="none" xmlns="http://www.w3.org/2000/svg">
<path d="M102.835 73.7522C106.503 75.4989 109.341 77.9879 111.35 81.2192C113.446 84.4506 114.494 88.1622 114.494 92.3542C114.494 98.2929 112.529 103.489 108.599 107.943C104.669 112.485 99.0797 115.934 91.831 118.292C84.5824 120.738 76.1547 121.96 66.548 121.96C51.4394 121.96 37.859 119.209 25.807 113.707C13.755 108.205 5.15271 100.782 4.1455e-05 91.4372L7.20504 87.1142C12.445 95.0616 20.3924 101.262 31.047 105.716C41.7017 110.17 53.5354 112.397 66.548 112.397C78.1634 112.397 87.4207 110.563 94.32 106.895C101.219 103.315 104.669 98.4676 104.669 92.3542C104.669 88.5116 103.228 85.4112 100.346 83.0532C97.464 80.6952 93.6214 79.5162 88.818 79.5162H65.893V70.8702H88.818C91.0014 70.8702 93.272 71.0886 95.63 71.5252C96.2414 65.8486 96.547 59.8662 96.547 53.5782V-0.000787497H106.896V53.5782C106.896 61.7876 105.542 68.5122 102.835 73.7522ZM135.885 0.130211H146.496V91.6992H135.885V0.130211ZM218.338 82.5292C218.338 82.7039 218.294 82.8349 218.207 82.9222V85.2802C218.207 97.2449 214.539 106.153 207.203 112.004C199.954 117.943 189.038 121.611 174.453 123.008V114.886C184.496 113.926 192.531 111.393 198.557 107.288C204.583 103.271 207.858 97.4196 208.382 89.7342C201.133 91.4809 194.409 91.3936 188.208 89.4722C181.658 88.1622 176.505 85.1929 172.75 80.5642C168.995 75.9356 167.117 70.1716 167.117 63.2722V62.8792C167.117 55.0192 169.562 48.6876 174.453 43.8842C179.344 39.0809 185.806 36.6792 193.841 36.6792C201.439 36.6792 207.421 38.9936 211.788 43.6222C216.155 48.2509 218.338 54.6699 218.338 62.8792V82.5292ZM176.549 63.2722C176.549 69.2982 178.514 73.9706 182.444 77.2892C186.461 80.6079 192.138 82.2672 199.474 82.2672H208.513V66.8092H208.644V62.8792C208.644 57.2025 207.334 52.8795 204.714 49.9102C202.181 46.9409 198.557 45.4562 193.841 45.4562C188.601 45.4562 184.409 47.0719 181.265 50.3032C178.121 53.4472 176.549 57.6829 176.549 63.0102V63.2722ZM314.392 43.8842C312.645 43.8842 311.117 43.2729 309.807 42.0502C308.584 40.7402 307.973 39.1682 307.973 37.3342C307.973 35.5875 308.584 34.1029 309.807 32.8802C311.117 31.5702 312.689 30.9152 314.523 30.9152C316.27 30.9152 317.754 31.5265 318.977 32.7492C320.287 33.9719 320.942 35.4566 320.942 37.2032C320.942 39.0372 320.287 40.6092 318.977 41.9192C317.754 43.2292 316.226 43.8842 314.392 43.8842ZM377.665 91.6992C373.211 91.6992 369.412 91.2626 366.268 90.3892C363.124 89.5159 360.198 88.1622 357.491 86.3282C355.308 95.2362 350.417 102.092 342.819 106.895C335.221 111.699 325.745 114.1 314.392 114.1C298.847 114.1 285.965 109.603 275.747 100.607C265.616 91.6992 258.935 79.8656 255.704 65.1062L263.695 62.3552C267.101 75.5426 273.214 85.8479 282.035 93.2712C290.943 100.782 301.729 104.537 314.392 104.537C324.959 104.537 333.256 102.092 339.282 97.2012C345.395 92.3106 348.452 85.3239 348.452 76.2412V48.8622H358.801V75.7172V77.6822C364.041 80.6516 370.329 82.1362 377.665 82.1362V91.6992ZM398.974 82.1362V91.6992H376.311V82.1362H398.974ZM419.059 82.1362V91.6992H396.396V82.1362H419.059ZM439.144 82.1362V91.6992H416.481V82.1362H439.144ZM459.229 82.1362V91.6992H436.566V82.1362H459.229ZM479.314 82.1362V91.6992H456.651V82.1362H479.314ZM499.399 82.1362V91.6992H476.736V82.1362H499.399ZM519.484 82.1362V91.6992H496.821V82.1362H519.484ZM539.569 82.1362V91.6992H516.906V82.1362H539.569ZM559.654 82.1362V91.6992H536.991V82.1362H559.654ZM579.738 82.1362V91.6992H557.075V82.1362H579.738ZM599.823 82.1362V91.6992H577.16V82.1362H599.823ZM619.908 82.1362V91.6992H597.245V82.1362H619.908ZM639.993 82.1362V91.6992H617.33V82.1362H639.993ZM660.078 82.1362V91.6992H637.415V82.1362H660.078ZM680.163 82.1362V91.6992H657.5V82.1362H680.163ZM700.248 82.1362V91.6992H677.585V82.1362H700.248ZM720.333 82.1362V91.6992H697.67V82.1362H720.333ZM740.418 82.1362V91.6992H717.755V82.1362H740.418ZM760.503 82.1362V91.6992H737.84V82.1362H760.503ZM780.588 82.1362V91.6992H757.925V82.1362H780.588ZM800.673 82.1362V91.6992H778.01V82.1362H800.673ZM820.758 82.1362V91.6992H798.095V82.1362H820.758ZM840.843 82.1362V91.6992H818.18V82.1362H840.843ZM860.928 82.1362V91.6992H838.265V82.1362H860.928ZM881.013 82.1362V91.6992H858.35V82.1362H881.013ZM901.098 82.1362V91.6992H878.435V82.1362H901.098ZM921.183 82.1362V91.6992H898.52V82.1362H921.183ZM941.268 82.1362V91.6992H918.605V82.1362H941.268ZM961.353 82.1362V91.6992H938.69V82.1362H961.353ZM981.438 82.1362V91.6992H958.775V82.1362H981.438ZM1001.52 82.1362V91.6992H978.86V82.1362H1001.52ZM1021.61 82.1362V91.6992H998.945V82.1362H1021.61ZM1041.69 82.1362V91.6992H1019.03V82.1362H1041.69ZM1082.08 38.3822C1092.13 38.3822 1099.11 41.9629 1103.04 49.1242C1106.97 56.2855 1109.02 66.0669 1109.2 78.4682C1107.8 83.7082 1104.35 87.6382 1098.85 90.2582C1093.44 92.7909 1087.85 94.0572 1082.08 94.0572C1078.24 94.0572 1074.27 93.4459 1070.16 92.2232C1066.06 91.0006 1062.65 89.1229 1059.94 86.5902C1054.88 89.9962 1048.37 91.6992 1040.42 91.6992C1039.2 91.6992 1038.5 91.0006 1038.33 89.6032V84.1012C1038.33 82.8786 1039.03 82.2236 1040.42 82.1362C1046.54 82.1362 1051.38 80.9572 1054.97 78.5992V78.4682C1055.14 66.0669 1057.19 56.2855 1061.12 49.1242C1065.05 41.9629 1072.04 38.3822 1082.08 38.3822ZM1098.72 78.5992C1099.07 67.9446 1097.85 60.0846 1095.05 55.0192C1092.34 49.8666 1088.02 47.2902 1082.08 47.2902C1076.14 47.2902 1071.78 49.8666 1068.98 55.0192C1066.28 60.0846 1065.1 67.9446 1065.45 78.5992C1066.76 80.6079 1068.94 82.1799 1072 83.3152C1075.14 84.4506 1078.5 85.0182 1082.08 85.0182C1085.66 85.0182 1088.98 84.4506 1092.04 83.3152C1095.18 82.1799 1097.41 80.6079 1098.72 78.5992ZM117.874 221.699C115.778 221.699 112.722 221.612 108.704 221.437C108.093 232.529 103.814 241.131 95.8665 247.244C87.9191 253.358 77.5265 256.414 64.6885 256.414C49.4925 256.414 36.7418 252.397 26.4365 244.362C16.2185 236.328 9.18813 225.673 5.34546 212.398L13.2055 209.516C17.2228 221.132 23.7291 230.214 32.7245 236.764C41.7198 243.402 52.3745 246.72 64.6885 246.72C74.7318 246.72 82.8538 244.406 89.0545 239.777C95.3425 235.236 98.6175 228.773 98.8795 220.389C89.1855 219.167 80.7578 217.202 73.5965 214.494L76.4785 205.979C82.0678 207.988 88.5305 209.516 95.8665 210.564C103.29 211.612 110.626 212.136 117.874 212.136V221.699ZM55.3875 270.431C57.1341 270.431 58.6188 271.043 59.8415 272.265C61.1515 273.488 61.8065 274.973 61.8065 276.719C61.8065 278.553 61.1515 280.125 59.8415 281.435C58.6188 282.745 57.0905 283.4 55.2565 283.4C53.5098 283.4 51.9815 282.745 50.6715 281.435C49.4488 280.213 48.8375 278.684 48.8375 276.85C48.8375 275.104 49.4488 273.575 50.6715 272.265C51.9815 271.043 53.5535 270.431 55.3875 270.431ZM73.9895 270.431C75.7361 270.431 77.2208 271.043 78.4435 272.265C79.7535 273.488 80.4085 274.973 80.4085 276.719C80.4085 278.553 79.7535 280.125 78.4435 281.435C77.2208 282.745 75.6925 283.4 73.8585 283.4C72.1118 283.4 70.5835 282.745 69.2735 281.435C68.0508 280.213 67.4395 278.684 67.4395 276.85C67.4395 275.104 68.0508 273.575 69.2735 272.265C70.5835 271.043 72.1555 270.431 73.9895 270.431ZM117.924 221.699C116.701 221.699 116.002 221.001 115.828 219.603V214.101C115.828 212.879 116.526 212.224 117.924 212.136H118.055C124.692 212.136 129.277 211.001 131.81 208.73C134.342 206.46 135.609 202.18 135.609 195.892V166.679H146.089V195.892C146.089 205.237 143.905 211.874 139.539 215.804C135.172 219.734 128.011 221.699 118.055 221.699H117.924ZM129.19 236.633C131.024 236.633 132.552 237.288 133.775 238.598C135.085 239.908 135.74 241.48 135.74 243.314C135.74 245.061 135.085 246.546 133.775 247.768C132.552 248.991 131.067 249.602 129.321 249.602C127.487 249.602 125.915 248.947 124.605 247.637C123.382 246.415 122.771 244.93 122.771 243.183C122.771 241.349 123.382 239.777 124.605 238.467C125.915 237.245 127.443 236.633 129.19 236.633ZM210.352 221.699C202.754 221.699 196.51 220.215 191.619 217.245C191.008 228.511 186.903 236.939 179.305 242.528C171.795 248.118 161.271 251.48 147.734 252.615L147.603 244.493C158.695 243.183 167.079 240.17 172.755 235.454C178.432 230.826 181.27 223.708 181.27 214.101V174.146H191.75V207.813C194.37 209.298 197.121 210.39 200.003 211.088C202.973 211.787 206.422 212.136 210.352 212.136V221.699ZM231.514 212.136V221.699H208.851V212.136H231.514ZM251.599 212.136V221.699H228.936V212.136H251.599ZM271.684 212.136V221.699H249.021V212.136H271.684ZM291.769 212.136V221.699H269.106V212.136H291.769ZM373.555 212.136V221.699H369.887C355.913 221.699 344.429 220.084 335.434 216.852C325.565 220.084 313.557 221.699 299.409 221.699H290.501C287.444 221.699 284.955 221.263 283.034 220.389C281.025 219.429 280.021 218.25 280.021 216.852C280.021 215.455 281.025 214.32 283.034 213.446C284.955 212.573 287.444 212.136 290.501 212.136H299.409C308.841 212.136 316.875 211.612 323.513 210.564C314.168 204.014 306.352 193.447 300.064 178.862L302.553 171.788C307.705 169.256 313.164 167.291 318.928 165.893C324.692 164.409 329.975 163.666 334.779 163.666C343.075 163.666 349.582 165.631 354.298 169.561C359.101 173.491 361.546 179.037 361.634 186.198V186.591C361.634 186.591 361.634 186.679 361.634 186.853C361.372 197.159 356.568 205.324 347.224 211.35C353.599 211.874 361.153 212.136 369.887 212.136H373.555ZM310.806 178.207C315.784 191.831 323.163 201.962 332.945 208.599C339.582 206.591 344.385 203.752 347.355 200.084C350.411 196.416 351.94 191.788 351.94 186.198H352.071C351.809 177.465 346.045 173.098 334.779 173.098C327.617 173.098 319.626 174.801 310.806 178.207ZM373.527 221.699C372.13 221.699 371.431 221.001 371.431 219.603V214.101C371.431 212.791 372.13 212.136 373.527 212.136C380.077 212.136 384.662 211.001 387.282 208.73C389.902 206.372 391.212 202.093 391.212 195.892V129.999H401.561V195.892C401.561 205.15 399.334 211.787 394.88 215.804C390.426 219.734 383.308 221.699 373.527 221.699ZM428.716 130.13H439.327V221.699H428.716V130.13ZM586.206 174.539V195.892C586.206 204.713 584.241 211.132 580.311 215.149C576.381 219.079 570.005 221.263 561.185 221.699H531.841C519.963 221.699 511.055 218.774 505.117 212.922C499.178 206.984 496.252 198.425 496.34 187.246C496.34 178.95 497.955 170.959 501.187 163.273L509.964 164.845C507.431 172.531 506.077 179.998 505.903 187.246C505.903 195.718 507.999 202.006 512.191 206.11C516.47 210.128 523.02 212.136 531.841 212.136H558.172C562.626 212.136 566.075 211.656 568.521 210.695C571.053 209.735 572.887 208.119 574.023 205.848C575.158 203.49 575.726 200.172 575.726 195.892V174.539H586.206ZM543.631 236.764C545.465 236.764 546.993 237.419 548.216 238.729C549.526 240.039 550.181 241.611 550.181 243.445C550.181 245.192 549.526 246.677 548.216 247.899C546.993 249.122 545.508 249.733 543.762 249.733C541.928 249.733 540.356 249.078 539.046 247.768C537.823 246.546 537.212 245.061 537.212 243.314C537.212 241.48 537.823 239.908 539.046 238.598C540.356 237.376 541.884 236.764 543.631 236.764ZM637.898 221.699C628.117 221.699 620.999 219.734 616.545 215.804C612.091 211.787 609.864 205.15 609.864 195.892V129.999H620.213V195.892C620.213 202.093 621.523 206.372 624.143 208.73C626.763 211.001 631.348 212.136 637.898 212.136C639.296 212.136 639.994 212.791 639.994 214.101V219.603C639.994 221.001 639.296 221.699 637.898 221.699ZM659.311 212.136V221.699H636.648V212.136H659.311ZM679.396 212.136V221.699H656.733V212.136H679.396ZM699.481 212.136V221.699H676.818V212.136H699.481ZM719.566 212.136V221.699H696.903V212.136H719.566ZM739.651 212.136V221.699H716.988V212.136H739.651ZM759.736 212.136V221.699H737.073V212.136H759.736ZM779.821 212.136V221.699H757.158V212.136H779.821ZM799.905 212.136V221.699H777.242V212.136H799.905ZM819.99 212.136V221.699H797.327V212.136H819.99ZM840.075 212.136V221.699H817.412V212.136H840.075ZM860.16 212.136V221.699H837.497V212.136H860.16ZM887.057 195.892C887.057 202.093 888.367 206.372 890.987 208.73C893.607 211.001 898.192 212.136 904.742 212.136V221.699C894.175 221.699 887.057 218.512 883.389 212.136C881.293 215.455 878.237 217.9 874.219 219.472C870.202 220.957 865.093 221.699 858.892 221.699C857.67 221.699 856.971 221.001 856.796 219.603V214.101C856.796 212.879 857.495 212.224 858.892 212.136C865.355 212.136 869.896 211.001 872.516 208.73C875.224 206.46 876.577 202.311 876.577 196.285V174.539H887.057V195.892ZM881.817 236.764C883.651 236.764 885.18 237.419 886.402 238.729C887.712 240.039 888.367 241.611 888.367 243.445C888.367 245.192 887.712 246.677 886.402 247.899C885.18 249.122 883.695 249.733 881.948 249.733C880.114 249.733 878.542 249.078 877.232 247.768C876.01 246.546 875.398 245.061 875.398 243.314C875.398 241.48 876.01 239.908 877.232 238.598C878.542 237.376 880.071 236.764 881.817 236.764ZM965.999 146.636C964.252 146.636 962.724 146.025 961.414 144.802C960.191 143.492 959.58 141.92 959.58 140.086C959.58 138.34 960.191 136.855 961.414 135.632C962.724 134.322 964.296 133.667 966.13 133.667C967.877 133.667 969.361 134.279 970.584 135.501C971.894 136.724 972.549 138.209 972.549 139.955C972.549 141.789 971.894 143.361 970.584 144.671C969.361 145.981 967.833 146.636 965.999 146.636ZM956.698 162.356C954.951 162.356 953.423 161.745 952.113 160.522C950.89 159.212 950.279 157.64 950.279 155.806C950.279 154.06 950.89 152.575 952.113 151.352C953.423 150.042 954.995 149.387 956.829 149.387C958.576 149.387 960.06 149.999 961.283 151.221C962.593 152.444 963.248 153.929 963.248 155.675C963.248 157.509 962.593 159.081 961.283 160.391C960.06 161.701 958.532 162.356 956.698 162.356ZM968.881 155.806C968.881 154.06 969.492 152.575 970.715 151.352C972.025 150.042 973.597 149.387 975.431 149.387C977.178 149.387 978.662 149.999 979.885 151.221C981.195 152.444 981.85 153.929 981.85 155.675C981.85 157.509 981.195 159.081 979.885 160.391C978.662 161.701 977.134 162.356 975.3 162.356C973.554 162.356 972.025 161.745 970.715 160.522C969.492 159.212 968.881 157.64 968.881 155.806ZM1007.66 196.285C1007.66 202.137 1009.32 206.241 1012.64 208.599C1016.04 210.957 1021.15 212.136 1027.96 212.136V221.699C1016.7 221.699 1008.88 218.337 1004.51 211.612C1000.93 218.337 994.12 221.699 984.077 221.699C976.13 221.699 970.41 219.123 966.916 213.97C963.248 219.123 956.916 221.699 947.921 221.699C937.703 221.699 930.804 218.468 927.223 212.005C922.856 218.468 915.127 221.699 904.036 221.699V212.136C910.848 212.136 915.913 210.957 919.232 208.599C922.638 206.241 924.341 202.137 924.341 196.285V177.159H934.297V198.25C934.297 203.665 935.301 207.377 937.31 209.385C939.406 211.394 942.943 212.398 947.921 212.398C952.724 212.398 956.087 211.394 958.008 209.385C960.017 207.377 961.021 203.665 961.021 198.25V177.159H970.977V196.547C970.977 202.661 971.938 206.853 973.859 209.123C975.868 211.307 979.274 212.398 984.077 212.398C989.055 212.398 992.549 211.307 994.557 209.123C996.653 206.853 997.701 202.661 997.701 196.547V165.369H1007.66V196.285ZM1028.02 221.699C1026.62 221.699 1025.92 221.001 1025.92 219.603V214.101C1025.92 212.791 1026.62 212.136 1028.02 212.136C1034.57 212.136 1039.15 211.001 1041.77 208.73C1044.39 206.372 1045.7 202.093 1045.7 195.892V129.999H1056.05V195.892C1056.05 205.15 1053.82 211.787 1049.37 215.804C1044.91 219.734 1037.8 221.699 1028.02 221.699ZM1083.2 130.13H1093.82V221.699H1083.2V130.13Z" fill="white"/>
</svg>
