<svg width="102" height="27" viewBox="0 0 102 27" fill="none" xmlns="http://www.w3.org/2000/svg">
<path d="M9.42009 6.75639C9.75609 6.91639 10.0161 7.14439 10.2001 7.44039C10.3921 7.73639 10.4881 8.07639 10.4881 8.46039C10.4881 9.00439 10.3081 9.48039 9.94809 9.88839C9.58809 10.3044 9.07609 10.6204 8.41209 10.8364C7.74809 11.0604 6.97609 11.1724 6.09609 11.1724C4.71209 11.1724 3.46809 10.9204 2.36409 10.4164C1.26009 9.91239 0.47209 9.23239 8.95262e-05 8.37639L0.66009 7.98039C1.14009 8.70839 1.86809 9.27639 2.84409 9.68439C3.82009 10.0924 4.90409 10.2964 6.09609 10.2964C7.16009 10.2964 8.00809 10.1284 8.64009 9.79239C9.27209 9.46439 9.58809 9.02039 9.58809 8.46039C9.58809 8.10839 9.45609 7.82439 9.19209 7.60839C8.92809 7.39239 8.57609 7.28439 8.13609 7.28439H6.03609V6.49239H8.13609C8.33609 6.49239 8.54409 6.51239 8.76009 6.55239C8.81609 6.03239 8.84409 5.48439 8.84409 4.90839V0.000390053H9.79209V4.90839C9.79209 5.66039 9.66809 6.27639 9.42009 6.75639ZM12.4476 0.0123899H13.4196V8.40039H12.4476V0.0123899ZM22.9986 4.02039C22.8386 4.02039 22.6986 3.96439 22.5786 3.85239C22.4666 3.73239 22.4106 3.58839 22.4106 3.42039C22.4106 3.26039 22.4666 3.12439 22.5786 3.01239C22.6986 2.89239 22.8426 2.83239 23.0106 2.83239C23.1706 2.83239 23.3066 2.88839 23.4186 3.00039C23.5386 3.11239 23.5986 3.24839 23.5986 3.40839C23.5986 3.57639 23.5386 3.72039 23.4186 3.84039C23.3066 3.96039 23.1666 4.02039 22.9986 4.02039ZM28.7946 8.40039C28.3866 8.40039 28.0386 8.36039 27.7506 8.28039C27.4626 8.20039 27.1946 8.07639 26.9466 7.90839C26.7466 8.72439 26.2986 9.35239 25.6026 9.79239C24.9066 10.2324 24.0386 10.4524 22.9986 10.4524C21.5746 10.4524 20.3946 10.0404 19.4586 9.21639C18.5306 8.40039 17.9186 7.31639 17.6226 5.96439L18.3546 5.71239C18.6666 6.92039 19.2266 7.86439 20.0346 8.54439C20.8506 9.23239 21.8386 9.57639 22.9986 9.57639C23.9666 9.57639 24.7266 9.35239 25.2786 8.90439C25.8386 8.45639 26.1186 7.81639 26.1186 6.98439V4.47639H27.0666V6.93639V7.11639C27.5466 7.38839 28.1226 7.52439 28.7946 7.52439V8.40039ZM30.7465 7.52439V8.40039H28.6705V7.52439H30.7465ZM32.5864 7.52439V8.40039H30.5104V7.52439H32.5864ZM34.4262 7.52439V8.40039H32.3502V7.52439H34.4262ZM36.2661 7.52439V8.40039H34.1901V7.52439H36.2661ZM38.1059 7.52439V8.40039H36.0299V7.52439H38.1059ZM39.9457 7.52439V8.40039H37.8697V7.52439H39.9457ZM41.7856 7.52439V8.40039H39.7096V7.52439H41.7856ZM43.6254 7.52439V8.40039H41.5494V7.52439H43.6254ZM45.4653 7.52439V8.40039H43.3893V7.52439H45.4653ZM47.3051 7.52439V8.40039H45.2291V7.52439H47.3051ZM49.145 7.52439V8.40039H47.069V7.52439H49.145ZM50.9848 7.52439V8.40039H48.9088V7.52439H50.9848ZM52.8247 7.52439V8.40039H50.7487V7.52439H52.8247ZM54.6645 7.52439V8.40039H52.5885V7.52439H54.6645ZM56.5043 7.52439V8.40039H54.4283V7.52439H56.5043ZM58.3442 7.52439V8.40039H56.2682V7.52439H58.3442ZM60.184 7.52439V8.40039H58.108V7.52439H60.184ZM62.0239 7.52439V8.40039H59.9479V7.52439H62.0239ZM63.8637 7.52439V8.40039H61.7877V7.52439H63.8637ZM65.7036 7.52439V8.40039H63.6276V7.52439H65.7036ZM67.5434 7.52439V8.40039H65.4674V7.52439H67.5434ZM69.3832 7.52439V8.40039H67.3072V7.52439H69.3832ZM71.2231 7.52439V8.40039H69.1471V7.52439H71.2231ZM73.0629 7.52439V8.40039H70.9869V7.52439H73.0629ZM74.9028 7.52439V8.40039H72.8268V7.52439H74.9028ZM76.7426 7.52439V8.40039H74.6666V7.52439H76.7426ZM78.5825 7.52439V8.40039H76.5065V7.52439H78.5825ZM80.4223 7.52439V8.40039H78.3463V7.52439H80.4223ZM82.2622 7.52439V8.40039H80.1862V7.52439H82.2622ZM84.102 7.52439V8.40039H82.026V7.52439H84.102ZM85.9418 7.52439V8.40039H83.8658V7.52439H85.9418ZM87.7817 7.52439V8.40039H85.7057V7.52439H87.7817ZM89.6215 7.52439V8.40039H87.5455V7.52439H89.6215ZM91.4614 7.52439V8.40039H89.3854V7.52439H91.4614ZM93.3012 7.52439V8.40039H91.2252V7.52439H93.3012ZM95.1411 7.52439V8.40039H93.0651V7.52439H95.1411ZM98.8409 3.51639C99.7609 3.51639 100.401 3.84439 100.761 4.50039C101.121 5.15639 101.309 6.05239 101.325 7.18839C101.197 7.66839 100.881 8.02839 100.377 8.26839C99.8809 8.50039 99.3689 8.61639 98.8409 8.61639C98.4889 8.61639 98.1249 8.56039 97.7489 8.44839C97.3729 8.33639 97.0609 8.16439 96.8129 7.93239C96.3489 8.24439 95.7529 8.40039 95.0249 8.40039C94.9129 8.40039 94.8489 8.33639 94.8329 8.20839V7.70439C94.8329 7.59239 94.8969 7.53239 95.0249 7.52439C95.5849 7.52439 96.0289 7.41639 96.3569 7.20039V7.18839C96.3729 6.05239 96.5609 5.15639 96.9209 4.50039C97.2809 3.84439 97.9209 3.51639 98.8409 3.51639ZM100.365 7.20039C100.397 6.22439 100.285 5.50439 100.029 5.04039C99.7809 4.56839 99.3849 4.33239 98.8409 4.33239C98.2969 4.33239 97.8969 4.56839 97.6409 5.04039C97.3929 5.50439 97.2849 6.22439 97.3169 7.20039C97.4369 7.38439 97.6369 7.52839 97.9169 7.63239C98.2049 7.73639 98.5129 7.78839 98.8409 7.78839C99.1689 7.78839 99.4729 7.73639 99.7529 7.63239C100.041 7.52839 100.245 7.38439 100.365 7.20039ZM10.7977 20.4004C10.6057 20.4004 10.3257 20.3924 9.95775 20.3764C9.90175 21.3924 9.50975 22.1804 8.78175 22.7404C8.05375 23.3004 7.10175 23.5804 5.92575 23.5804C4.53375 23.5804 3.36575 23.2124 2.42175 22.4764C1.48575 21.7404 0.841746 20.7644 0.489746 19.5484L1.20975 19.2844C1.57775 20.3484 2.17375 21.1804 2.99775 21.7804C3.82175 22.3884 4.79775 22.6924 5.92575 22.6924C6.84575 22.6924 7.58975 22.4804 8.15775 22.0564C8.73375 21.6404 9.03375 21.0484 9.05775 20.2804C8.16975 20.1684 7.39775 19.9884 6.74175 19.7404L7.00575 18.9604C7.51775 19.1444 8.10975 19.2844 8.78175 19.3804C9.46175 19.4764 10.1337 19.5244 10.7977 19.5244V20.4004ZM5.07375 24.8644C5.23375 24.8644 5.36975 24.9204 5.48175 25.0324C5.60175 25.1444 5.66175 25.2804 5.66175 25.4404C5.66175 25.6084 5.60175 25.7524 5.48175 25.8724C5.36975 25.9924 5.22975 26.0524 5.06175 26.0524C4.90175 26.0524 4.76175 25.9924 4.64175 25.8724C4.52975 25.7604 4.47375 25.6204 4.47375 25.4524C4.47375 25.2924 4.52975 25.1524 4.64175 25.0324C4.76175 24.9204 4.90575 24.8644 5.07375 24.8644ZM6.77775 24.8644C6.93775 24.8644 7.07375 24.9204 7.18575 25.0324C7.30575 25.1444 7.36575 25.2804 7.36575 25.4404C7.36575 25.6084 7.30575 25.7524 7.18575 25.8724C7.07375 25.9924 6.93375 26.0524 6.76575 26.0524C6.60575 26.0524 6.46575 25.9924 6.34575 25.8724C6.23375 25.7604 6.17775 25.6204 6.17775 25.4524C6.17775 25.2924 6.23375 25.1524 6.34575 25.0324C6.46575 24.9204 6.60975 24.8644 6.77775 24.8644ZM10.8022 20.4004C10.6902 20.4004 10.6262 20.3364 10.6102 20.2084V19.7044C10.6102 19.5924 10.6742 19.5324 10.8022 19.5244H10.8142C11.4222 19.5244 11.8422 19.4204 12.0742 19.2124C12.3062 19.0044 12.4222 18.6124 12.4222 18.0364V15.3604H13.3822V18.0364C13.3822 18.8924 13.1822 19.5004 12.7822 19.8604C12.3822 20.2204 11.7262 20.4004 10.8142 20.4004H10.8022ZM11.8342 21.7684C12.0022 21.7684 12.1422 21.8284 12.2542 21.9484C12.3742 22.0684 12.4342 22.2124 12.4342 22.3804C12.4342 22.5404 12.3742 22.6764 12.2542 22.7884C12.1422 22.9004 12.0062 22.9564 11.8462 22.9564C11.6782 22.9564 11.5342 22.8964 11.4142 22.7764C11.3022 22.6644 11.2462 22.5284 11.2462 22.3684C11.2462 22.2004 11.3022 22.0564 11.4142 21.9364C11.5342 21.8244 11.6742 21.7684 11.8342 21.7684ZM19.269 20.4004C18.573 20.4004 18.001 20.2644 17.553 19.9924C17.497 21.0244 17.121 21.7964 16.425 22.3084C15.737 22.8204 14.773 23.1284 13.533 23.2324L13.521 22.4884C14.537 22.3684 15.305 22.0924 15.825 21.6604C16.345 21.2364 16.605 20.5844 16.605 19.7044V16.0444H17.565V19.1284C17.805 19.2644 18.057 19.3644 18.321 19.4284C18.593 19.4924 18.909 19.5244 19.269 19.5244V20.4004ZM21.2075 19.5244V20.4004H19.1315V19.5244H21.2075ZM23.0473 19.5244V20.4004H20.9713V19.5244H23.0473ZM24.8872 19.5244V20.4004H22.8112V19.5244H24.8872ZM26.727 19.5244V20.4004H24.651V19.5244H26.727ZM34.2188 19.5244V20.4004H33.8828C32.6028 20.4004 31.5508 20.2524 30.7268 19.9564C29.8228 20.2524 28.7228 20.4004 27.4268 20.4004H26.6108C26.3308 20.4004 26.1028 20.3604 25.9268 20.2804C25.7428 20.1924 25.6508 20.0844 25.6508 19.9564C25.6508 19.8284 25.7428 19.7244 25.9268 19.6444C26.1028 19.5644 26.3308 19.5244 26.6108 19.5244H27.4268C28.2908 19.5244 29.0268 19.4764 29.6348 19.3804C28.7788 18.7804 28.0628 17.8124 27.4868 16.4764L27.7148 15.8284C28.1868 15.5964 28.6868 15.4164 29.2148 15.2884C29.7428 15.1524 30.2268 15.0844 30.6668 15.0844C31.4268 15.0844 32.0228 15.2644 32.4548 15.6244C32.8948 15.9844 33.1188 16.4924 33.1268 17.1484V17.1844C33.1268 17.1844 33.1268 17.1924 33.1268 17.2084C33.1028 18.1524 32.6628 18.9004 31.8068 19.4524C32.3908 19.5004 33.0828 19.5244 33.8828 19.5244H34.2188ZM28.4708 16.4164C28.9268 17.6644 29.6028 18.5924 30.4988 19.2004C31.1068 19.0164 31.5468 18.7564 31.8188 18.4204C32.0988 18.0844 32.2388 17.6604 32.2388 17.1484H32.2508C32.2268 16.3484 31.6988 15.9484 30.6668 15.9484C30.0108 15.9484 29.2788 16.1044 28.4708 16.4164ZM34.2163 20.4004C34.0883 20.4004 34.0243 20.3364 34.0243 20.2084V19.7044C34.0243 19.5844 34.0883 19.5244 34.2163 19.5244C34.8163 19.5244 35.2363 19.4204 35.4763 19.2124C35.7163 18.9964 35.8363 18.6044 35.8363 18.0364V12.0004H36.7843V18.0364C36.7843 18.8844 36.5803 19.4924 36.1723 19.8604C35.7643 20.2204 35.1123 20.4004 34.2163 20.4004ZM39.2718 12.0124H40.2438V20.4004H39.2718V12.0124ZM53.6983 16.0804V18.0364C53.6983 18.8444 53.5183 19.4324 53.1583 19.8004C52.7983 20.1604 52.2143 20.3604 51.4063 20.4004H48.7183C47.6303 20.4004 46.8143 20.1324 46.2703 19.5964C45.7263 19.0524 45.4583 18.2684 45.4663 17.2444C45.4663 16.4844 45.6143 15.7524 45.9103 15.0484L46.7143 15.1924C46.4823 15.8964 46.3583 16.5804 46.3423 17.2444C46.3423 18.0204 46.5343 18.5964 46.9183 18.9724C47.3103 19.3404 47.9103 19.5244 48.7183 19.5244H51.1303C51.5383 19.5244 51.8543 19.4804 52.0783 19.3924C52.3103 19.3044 52.4783 19.1564 52.5823 18.9484C52.6863 18.7324 52.7383 18.4284 52.7383 18.0364V16.0804H53.6983ZM49.7983 21.7804C49.9663 21.7804 50.1063 21.8404 50.2183 21.9604C50.3383 22.0804 50.3983 22.2244 50.3983 22.3924C50.3983 22.5524 50.3383 22.6884 50.2183 22.8004C50.1063 22.9124 49.9703 22.9684 49.8103 22.9684C49.6423 22.9684 49.4983 22.9084 49.3783 22.7884C49.2663 22.6764 49.2103 22.5404 49.2103 22.3804C49.2103 22.2124 49.2663 22.0684 49.3783 21.9484C49.4983 21.8364 49.6383 21.7804 49.7983 21.7804ZM58.4335 20.4004C57.5375 20.4004 56.8855 20.2204 56.4775 19.8604C56.0695 19.4924 55.8655 18.8844 55.8655 18.0364V12.0004H56.8135V18.0364C56.8135 18.6044 56.9335 18.9964 57.1735 19.2124C57.4135 19.4204 57.8335 19.5244 58.4335 19.5244C58.5615 19.5244 58.6255 19.5844 58.6255 19.7044V20.2084C58.6255 20.3364 58.5615 20.4004 58.4335 20.4004ZM60.395 19.5244V20.4004H58.319V19.5244H60.395ZM62.2348 19.5244V20.4004H60.1588V19.5244H62.2348ZM64.0747 19.5244V20.4004H61.9987V19.5244H64.0747ZM65.9145 19.5244V20.4004H63.8385V19.5244H65.9145ZM67.7543 19.5244V20.4004H65.6783V19.5244H67.7543ZM69.5942 19.5244V20.4004H67.5182V19.5244H69.5942ZM71.434 19.5244V20.4004H69.358V19.5244H71.434ZM73.2739 19.5244V20.4004H71.1979V19.5244H73.2739ZM75.1137 19.5244V20.4004H73.0377V19.5244H75.1137ZM76.9536 19.5244V20.4004H74.8776V19.5244H76.9536ZM78.7934 19.5244V20.4004H76.7174V19.5244H78.7934ZM81.2572 18.0364C81.2572 18.6044 81.3772 18.9964 81.6172 19.2124C81.8572 19.4204 82.2772 19.5244 82.8772 19.5244V20.4004C81.9092 20.4004 81.2572 20.1084 80.9212 19.5244C80.7292 19.8284 80.4492 20.0524 80.0812 20.1964C79.7132 20.3324 79.2452 20.4004 78.6772 20.4004C78.5652 20.4004 78.5012 20.3364 78.4852 20.2084V19.7044C78.4852 19.5924 78.5492 19.5324 78.6772 19.5244C79.2692 19.5244 79.6852 19.4204 79.9252 19.2124C80.1732 19.0044 80.2972 18.6244 80.2972 18.0724V16.0804H81.2572V18.0364ZM80.7772 21.7804C80.9452 21.7804 81.0852 21.8404 81.1972 21.9604C81.3172 22.0804 81.3772 22.2244 81.3772 22.3924C81.3772 22.5524 81.3172 22.6884 81.1972 22.8004C81.0852 22.9124 80.9492 22.9684 80.7892 22.9684C80.6212 22.9684 80.4772 22.9084 80.3572 22.7884C80.2452 22.6764 80.1892 22.5404 80.1892 22.3804C80.1892 22.2124 80.2452 22.0684 80.3572 21.9484C80.4772 21.8364 80.6172 21.7804 80.7772 21.7804ZM88.4886 13.5244C88.3286 13.5244 88.1886 13.4684 88.0686 13.3564C87.9566 13.2364 87.9006 13.0924 87.9006 12.9244C87.9006 12.7644 87.9566 12.6284 88.0686 12.5164C88.1886 12.3964 88.3326 12.3364 88.5006 12.3364C88.6606 12.3364 88.7966 12.3924 88.9086 12.5044C89.0286 12.6164 89.0886 12.7524 89.0886 12.9124C89.0886 13.0804 89.0286 13.2244 88.9086 13.3444C88.7966 13.4644 88.6566 13.5244 88.4886 13.5244ZM87.6366 14.9644C87.4766 14.9644 87.3366 14.9084 87.2166 14.7964C87.1046 14.6764 87.0486 14.5324 87.0486 14.3644C87.0486 14.2044 87.1046 14.0684 87.2166 13.9564C87.3366 13.8364 87.4806 13.7764 87.6486 13.7764C87.8086 13.7764 87.9446 13.8324 88.0566 13.9444C88.1766 14.0564 88.2366 14.1924 88.2366 14.3524C88.2366 14.5204 88.1766 14.6644 88.0566 14.7844C87.9446 14.9044 87.8046 14.9644 87.6366 14.9644ZM88.7526 14.3644C88.7526 14.2044 88.8086 14.0684 88.9206 13.9564C89.0406 13.8364 89.1846 13.7764 89.3526 13.7764C89.5126 13.7764 89.6486 13.8324 89.7606 13.9444C89.8806 14.0564 89.9406 14.1924 89.9406 14.3524C89.9406 14.5204 89.8806 14.6644 89.7606 14.7844C89.6486 14.9044 89.5086 14.9644 89.3406 14.9644C89.1806 14.9644 89.0406 14.9084 88.9206 14.7964C88.8086 14.6764 88.7526 14.5324 88.7526 14.3644ZM92.3046 18.0724C92.3046 18.6084 92.4566 18.9844 92.7606 19.2004C93.0726 19.4164 93.5406 19.5244 94.1646 19.5244V20.4004C93.1326 20.4004 92.4166 20.0924 92.0166 19.4764C91.6886 20.0924 91.0646 20.4004 90.1446 20.4004C89.4166 20.4004 88.8926 20.1644 88.5726 19.6924C88.2366 20.1644 87.6566 20.4004 86.8326 20.4004C85.8966 20.4004 85.2646 20.1044 84.9366 19.5124C84.5366 20.1044 83.8286 20.4004 82.8126 20.4004V19.5244C83.4366 19.5244 83.9006 19.4164 84.2046 19.2004C84.5166 18.9844 84.6726 18.6084 84.6726 18.0724V16.3204H85.5846V18.2524C85.5846 18.7484 85.6766 19.0884 85.8606 19.2724C86.0526 19.4564 86.3766 19.5484 86.8326 19.5484C87.2726 19.5484 87.5806 19.4564 87.7566 19.2724C87.9406 19.0884 88.0326 18.7484 88.0326 18.2524V16.3204H88.9446V18.0964C88.9446 18.6564 89.0326 19.0404 89.2086 19.2484C89.3926 19.4484 89.7046 19.5484 90.1446 19.5484C90.6006 19.5484 90.9206 19.4484 91.1046 19.2484C91.2966 19.0404 91.3926 18.6564 91.3926 18.0964V15.2404H92.3046V18.0724ZM94.1694 20.4004C94.0414 20.4004 93.9774 20.3364 93.9774 20.2084V19.7044C93.9774 19.5844 94.0414 19.5244 94.1694 19.5244C94.7694 19.5244 95.1894 19.4204 95.4294 19.2124C95.6694 18.9964 95.7894 18.6044 95.7894 18.0364V12.0004H96.7374V18.0364C96.7374 18.8844 96.5334 19.4924 96.1254 19.8604C95.7174 20.2204 95.0654 20.4004 94.1694 20.4004ZM99.2249 12.0124H100.197V20.4004H99.2249V12.0124Z" fill="white"/>
</svg>
