<svg width="1440" height="400" viewBox="0 0 1440 400" fill="none" xmlns="http://www.w3.org/2000/svg">
<g clip-path="url(#clip0_483_51)">
<mask id="mask0_483_51" style="mask-type:luminance" maskUnits="userSpaceOnUse" x="0" y="121" width="1440" height="513">
<path d="M1440 121H0V634H1440V121Z" fill="white"/>
</mask>
<g mask="url(#mask0_483_51)">
<mask id="mask1_483_51" style="mask-type:luminance" maskUnits="userSpaceOnUse" x="82" y="130" width="128" height="128">
<path d="M210 130H82V258H210V130Z" fill="white"/>
</mask>
<g mask="url(#mask1_483_51)">
<path d="M204 237.368L178.24 219.496C187.924 217.708 194.334 215.832 194.334 215.832L172.666 197.792C179.922 196.062 184.668 194.322 184.668 194.322L166.422 175.276C171.622 173.488 175 171.734 175 171.734L145.998 134L117 171.734C117 171.734 120.378 173.488 125.576 175.276L107.334 194.322C107.334 194.322 112.078 196.062 119.332 197.79L97.666 215.832C97.666 215.832 104.076 217.708 113.758 219.496L88 237.368C88 237.368 108.106 242.28 132.466 243.786V254H159.534V243.786C183.892 242.28 204 237.368 204 237.368Z" fill="#24572A"/>
<path d="M222.438 219.75L207.142 209.138C212.892 208.077 216.698 206.963 216.698 206.963L203.833 196.252C208.141 195.224 210.959 194.191 210.959 194.191L200.126 182.883C203.213 181.821 205.219 180.78 205.219 180.78L187.999 158.375L170.781 180.78C170.781 180.78 172.787 181.821 175.873 182.883L165.042 194.191C165.042 194.191 167.859 195.224 172.166 196.25L159.302 206.963C159.302 206.963 163.108 208.077 168.856 209.138L153.562 219.75C153.562 219.75 165.5 222.666 179.964 223.56V229.625H196.036V223.56C210.498 222.666 222.438 219.75 222.438 219.75Z" fill="#24572A"/>
</g>
<path d="M251.875 248.815L234.165 236.529C240.823 235.299 245.23 234.01 245.23 234.01L230.333 221.607C235.321 220.418 238.584 219.221 238.584 219.221L226.04 206.127C229.615 204.898 231.938 203.692 231.938 203.692L211.999 177.75L192.062 203.692C192.062 203.692 194.385 204.898 197.959 206.127L185.417 219.221C185.417 219.221 188.679 220.418 193.666 221.606L178.77 234.01C178.77 234.01 183.177 235.299 189.834 236.529L172.125 248.815C172.125 248.815 185.948 252.193 202.695 253.228V260.25H221.305V253.228C238.051 252.193 251.875 248.815 251.875 248.815Z" fill="#24572A"/>
<path d="M346 252.368L320.24 234.496C329.924 232.708 336.334 230.832 336.334 230.832L314.666 212.792C321.922 211.062 326.668 209.322 326.668 209.322L308.422 190.276C313.622 188.488 317 186.734 317 186.734L287.998 149L259 186.734C259 186.734 262.378 188.488 267.576 190.276L249.334 209.322C249.334 209.322 254.078 211.062 261.332 212.79L239.666 230.832C239.666 230.832 246.076 232.708 255.758 234.496L230 252.368C230 252.368 250.106 257.28 274.466 258.786V269H301.534V258.786C325.892 257.28 346 252.368 346 252.368Z" fill="#24572A"/>
<path d="M513 264.368L487.24 246.496C496.924 244.708 503.334 242.832 503.334 242.832L481.666 224.792C488.922 223.062 493.668 221.322 493.668 221.322L475.422 202.276C480.622 200.488 484 198.734 484 198.734L454.998 161L426 198.734C426 198.734 429.378 200.488 434.576 202.276L416.334 221.322C416.334 221.322 421.078 223.062 428.332 224.79L406.666 242.832C406.666 242.832 413.076 244.708 422.758 246.496L397 264.368C397 264.368 417.106 269.28 441.466 270.786V281H468.534V270.786C492.892 269.28 513 264.368 513 264.368Z" fill="#24572A"/>
<path d="M451.438 250.75L436.142 240.138C441.892 239.077 445.698 237.963 445.698 237.963L432.833 227.251C437.141 226.224 439.959 225.191 439.959 225.191L429.126 213.883C432.213 212.821 434.219 211.78 434.219 211.78L416.999 189.375L399.781 211.78C399.781 211.78 401.787 212.821 404.873 213.883L394.042 225.191C394.042 225.191 396.859 226.224 401.166 227.25L388.302 237.963C388.302 237.963 392.108 239.077 397.856 240.138L382.562 250.75C382.562 250.75 394.5 253.666 408.964 254.56V260.625H425.036V254.56C439.498 253.666 451.438 250.75 451.438 250.75Z" fill="#24572A"/>
<path d="M540.438 268.75L525.142 258.138C530.892 257.077 534.698 255.963 534.698 255.963L521.833 245.251C526.141 244.224 528.959 243.191 528.959 243.191L518.126 231.883C521.213 230.821 523.219 229.78 523.219 229.78L505.999 207.375L488.781 229.78C488.781 229.78 490.787 230.821 493.873 231.883L483.042 243.191C483.042 243.191 485.859 244.224 490.166 245.25L477.302 255.963C477.302 255.963 481.108 257.077 486.856 258.138L471.562 268.75C471.562 268.75 483.5 271.666 497.964 272.56V278.625H514.036V272.56C528.498 271.666 540.438 268.75 540.438 268.75Z" fill="#24572A"/>
<path d="M1460 322.013C1008.16 412.723 600.938 221.182 0 235.801V635H1460V322.013Z" fill="url(#paint0_linear_483_51)"/>
<path d="M1422.46 333.875V320.918C1421.03 321.435 1419.51 321.708 1417.9 321.708C1410.29 321.708 1404.21 315.625 1404.21 308.021C1404.21 304.158 1405.73 300.69 1408.35 298.196C1407.65 296.554 1407.25 294.729 1407.25 292.813C1407.25 285.208 1413.33 279.125 1420.94 279.125C1425.68 279.125 1429.88 281.558 1432.34 285.208H1433.1C1435.3 285.208 1437.48 285.641 1439.51 286.482C1441.54 287.322 1443.38 288.555 1444.93 290.108C1446.49 291.662 1447.72 293.506 1448.56 295.536C1449.4 297.565 1449.83 299.741 1449.83 301.938C1449.83 304.134 1449.4 306.31 1448.56 308.339C1447.72 310.369 1446.49 312.213 1444.93 313.767C1443.38 315.32 1441.54 316.553 1439.51 317.393C1437.48 318.234 1435.3 318.667 1433.1 318.667C1431.58 318.667 1430.06 318.454 1428.54 318.028V333.875H1422.46Z" fill="#24572A"/>
<path d="M1385.92 336.75V327.875C1384.94 328.229 1383.9 328.417 1382.79 328.417C1377.58 328.417 1373.42 324.25 1373.42 319.042C1373.42 316.396 1374.46 314.021 1376.25 312.313C1375.77 311.188 1375.5 309.937 1375.5 308.625C1375.5 303.417 1379.67 299.25 1384.87 299.25C1388.12 299.25 1391 300.917 1392.69 303.417H1393.21C1394.71 303.417 1396.2 303.713 1397.59 304.289C1398.98 304.865 1400.25 305.709 1401.31 306.773C1402.37 307.837 1403.22 309.1 1403.79 310.49C1404.37 311.88 1404.67 313.37 1404.67 314.875C1404.67 316.38 1404.37 317.87 1403.79 319.26C1403.22 320.65 1402.37 321.913 1401.31 322.977C1400.25 324.041 1398.98 324.885 1397.59 325.461C1396.2 326.037 1394.71 326.333 1393.21 326.333C1392.17 326.333 1391.12 326.187 1390.08 325.896V336.75H1385.92Z" fill="#24572A"/>
<path d="M48.3334 202.376V234.91C48.3334 236.324 47.7715 237.681 46.7713 238.681C45.7711 239.681 44.4146 240.243 43.0001 240.243C41.5856 240.243 40.2291 239.681 39.2289 238.681C38.2287 237.681 37.6668 236.324 37.6668 234.91V202.376C31.6626 203.61 25.4166 202.738 19.9803 199.906C14.5439 197.074 10.249 192.456 7.81864 186.829C5.38819 181.202 4.97055 174.909 6.63601 169.01C8.30147 163.111 11.9483 157.966 16.9628 154.44C18.2835 148.52 21.5825 143.226 26.3159 139.432C31.0492 135.639 36.9341 133.571 43.0001 133.571C49.0661 133.571 54.951 135.639 59.6843 139.432C64.4176 143.226 67.7167 148.52 69.0374 154.44C74.0519 157.966 77.6988 163.111 79.3642 169.01C81.0297 174.909 80.612 181.202 78.1816 186.829C75.7512 192.456 71.4563 197.074 66.0199 199.906C60.5836 202.738 54.3376 203.61 48.3334 202.376Z" fill="#24572A"/>
<path d="M125.438 236.75L110.142 226.138C115.892 225.077 119.698 223.963 119.698 223.963L106.833 213.252C111.141 212.224 113.959 211.191 113.959 211.191L103.126 199.883C106.213 198.821 108.219 197.78 108.219 197.78L90.9988 175.375L73.7812 197.78C73.7812 197.78 75.7869 198.821 78.8733 199.883L68.0421 211.191C68.0421 211.191 70.8588 212.224 75.1659 213.25L62.3017 223.963C62.3017 223.963 66.1076 225.077 71.8563 226.138L56.5625 236.75C56.5625 236.75 68.5004 239.666 82.9642 240.56V246.625H99.0358V240.56C113.498 239.666 125.438 236.75 125.438 236.75Z" fill="#24572A"/>
<path d="M558.333 238.376V270.91C558.333 272.324 557.771 273.681 556.771 274.681C555.771 275.681 554.414 276.243 553 276.243C551.585 276.243 550.229 275.681 549.229 274.681C548.228 273.681 547.667 272.324 547.667 270.91V238.376C541.662 239.61 535.416 238.738 529.98 235.906C524.544 233.074 520.249 228.456 517.818 222.829C515.388 217.202 514.97 210.909 516.636 205.01C518.301 199.111 521.948 193.966 526.963 190.44C528.283 184.52 531.582 179.226 536.316 175.432C541.049 171.639 546.934 169.571 553 169.571C559.066 169.571 564.951 171.639 569.684 175.432C574.417 179.226 577.716 184.52 579.037 190.44C584.052 193.966 587.699 199.111 589.364 205.01C591.029 210.909 590.612 217.202 588.181 222.829C585.751 228.456 581.456 233.074 576.02 235.906C570.583 238.738 564.337 239.61 558.333 238.376Z" fill="#24572A"/>
<path d="M372.542 231.41V249.964C372.542 250.771 372.221 251.544 371.651 252.115C371.08 252.685 370.307 253.006 369.5 253.006C368.693 253.006 367.92 252.685 367.349 252.115C366.779 251.544 366.458 250.771 366.458 249.964V231.41C363.034 232.113 359.472 231.616 356.372 230.001C353.271 228.386 350.822 225.752 349.436 222.543C348.049 219.333 347.811 215.744 348.761 212.38C349.711 209.016 351.791 206.081 354.651 204.071C355.404 200.694 357.285 197.675 359.985 195.512C362.684 193.348 366.04 192.169 369.5 192.169C372.96 192.169 376.316 193.348 379.015 195.512C381.715 197.675 383.596 200.694 384.349 204.071C387.209 206.081 389.289 209.016 390.239 212.38C391.189 215.744 390.951 219.333 389.564 222.543C388.178 225.752 385.729 228.386 382.629 230.001C379.528 231.616 375.966 232.113 372.542 231.41Z" fill="#24572A"/>
</g>
</g>
<defs>
<linearGradient id="paint0_linear_483_51" x1="730" y1="235" x2="730.139" y2="1082.55" gradientUnits="userSpaceOnUse">
<stop offset="0.327537" stop-color="#24572A"/>
</linearGradient>
<clipPath id="clip0_483_51">
<rect width="1440" height="400" fill="white"/>
</clipPath>
</defs>
</svg>
