<svg width="1440" height="400" viewBox="0 0 1440 400" fill="none" xmlns="http://www.w3.org/2000/svg">
<g clip-path="url(#clip0_481_18)">
<path d="M1348 200.698C930.818 274.4 554.838 118.773 0 130.651V455H1348V200.698Z" fill="url(#paint0_linear_481_18)"/>
<path d="M1195.21 208.75V195.793C1193.78 196.31 1192.26 196.583 1190.65 196.583C1183.04 196.583 1176.96 190.5 1176.96 182.896C1176.96 179.033 1178.48 175.565 1181.1 173.071C1180.4 171.429 1180 169.604 1180 167.688C1180 160.083 1186.08 154 1193.69 154C1198.43 154 1202.63 156.433 1205.09 160.083H1205.85C1208.05 160.083 1210.23 160.516 1212.26 161.357C1214.29 162.197 1216.13 163.43 1217.68 164.983C1219.24 166.537 1220.47 168.381 1221.31 170.411C1222.15 172.44 1222.58 174.616 1222.58 176.813C1222.58 179.009 1222.15 181.185 1221.31 183.214C1220.47 185.244 1219.24 187.088 1217.68 188.642C1216.13 190.195 1214.29 191.428 1212.26 192.268C1210.23 193.109 1208.05 193.542 1205.85 193.542C1204.33 193.542 1202.81 193.329 1201.29 192.903V208.75H1195.21Z" fill="#287531"/>
<path d="M1155.67 220.625V211.75C1154.69 212.104 1153.65 212.292 1152.54 212.292C1147.33 212.292 1143.17 208.125 1143.17 202.917C1143.17 200.271 1144.21 197.896 1146 196.188C1145.52 195.063 1145.25 193.812 1145.25 192.5C1145.25 187.292 1149.42 183.125 1154.62 183.125C1157.88 183.125 1160.75 184.792 1162.44 187.292H1162.96C1164.46 187.292 1165.95 187.588 1167.34 188.164C1168.73 188.74 1170 189.584 1171.06 190.648C1172.12 191.712 1172.97 192.975 1173.54 194.365C1174.12 195.755 1174.42 197.245 1174.42 198.75C1174.42 200.255 1174.12 201.745 1173.54 203.135C1172.97 204.525 1172.12 205.788 1171.06 206.852C1170 207.916 1168.73 208.76 1167.34 209.336C1165.95 209.912 1164.46 210.208 1162.96 210.208C1161.92 210.208 1160.88 210.062 1159.83 209.771V220.625H1155.67Z" fill="#287531"/>
<path d="M923.792 262.25V256.038C923.106 256.285 922.377 256.417 921.604 256.417C917.958 256.417 915.042 253.5 915.042 249.854C915.042 248.002 915.771 246.34 917.025 245.144C916.689 244.356 916.5 243.481 916.5 242.563C916.5 238.917 919.417 236 923.062 236C925.337 236 927.35 237.167 928.531 238.917H928.896C929.949 238.917 930.992 239.124 931.965 239.527C932.938 239.93 933.822 240.521 934.567 241.266C935.312 242.011 935.903 242.895 936.306 243.868C936.709 244.841 936.917 245.884 936.917 246.938C936.917 247.991 936.709 249.034 936.306 250.007C935.903 250.98 935.312 251.864 934.567 252.609C933.822 253.354 932.938 253.945 931.965 254.348C930.992 254.751 929.949 254.958 928.896 254.958C928.167 254.958 927.437 254.856 926.708 254.652V262.25H923.792Z" fill="#287531"/>
<path d="M909.5 265.875V260.55C908.913 260.762 908.287 260.875 907.625 260.875C904.5 260.875 902 258.375 902 255.25C902 253.663 902.625 252.238 903.7 251.213C903.413 250.538 903.25 249.787 903.25 249C903.25 245.875 905.75 243.375 908.875 243.375C910.825 243.375 912.55 244.375 913.562 245.875H913.875C914.778 245.875 915.672 246.053 916.506 246.398C917.34 246.744 918.098 247.25 918.736 247.889C919.375 248.527 919.881 249.285 920.227 250.119C920.572 250.953 920.75 251.847 920.75 252.75C920.75 253.653 920.572 254.547 920.227 255.381C919.881 256.215 919.375 256.973 918.736 257.611C918.098 258.25 917.34 258.756 916.506 259.102C915.672 259.447 914.778 259.625 913.875 259.625C913.25 259.625 912.625 259.537 912 259.362V265.875H909.5Z" fill="#287430"/>
<path d="M496 273.185C794.96 360.947 1064.39 175.631 1462 189.775V576H496V273.185Z" fill="url(#paint1_linear_481_18)"/>
<path d="M193.922 125.763L177.284 114.22C183.538 113.065 187.679 111.853 187.679 111.853L173.684 100.202C178.37 99.0843 181.435 97.9605 181.435 97.9605L169.651 85.6591C173.009 84.5043 175.191 83.3715 175.191 83.3715L156.459 59L137.73 83.3715C137.73 83.3715 139.912 84.5043 143.269 85.6591L131.487 97.9605C131.487 97.9605 134.551 99.0843 139.237 100.2L125.243 111.853C125.243 111.853 129.383 113.065 135.636 114.22L119 125.763C119 125.763 131.986 128.935 147.719 129.908V136.505H165.202V129.908C180.934 128.935 193.922 125.763 193.922 125.763Z" fill="#2D8336"/>
<path d="M218.485 127.64L208.606 120.787C212.32 120.101 214.778 119.382 214.778 119.382L206.469 112.463C209.251 111.8 211.071 111.133 211.071 111.133L204.075 103.829C206.068 103.143 207.364 102.471 207.364 102.471L196.242 88L185.121 102.471C185.121 102.471 186.417 103.143 188.41 103.829L181.415 111.133C181.415 111.133 183.234 111.8 186.016 112.463L177.707 119.382C177.707 119.382 180.166 120.101 183.878 120.787L174 127.64C174 127.64 181.71 129.524 191.052 130.101V134.019H201.433V130.101C210.774 129.524 218.485 127.64 218.485 127.64Z" fill="#2D8336"/>
</g>
<defs>
<linearGradient id="paint0_linear_481_18" x1="570.794" y1="-89.71" x2="555.795" y2="687.225" gradientUnits="userSpaceOnUse">
<stop offset="0.243753" stop-color="#2F8A39"/>
<stop offset="0.275727" stop-color="#2F8A39"/>
<stop offset="0.804197"/>
</linearGradient>
<linearGradient id="paint1_linear_481_18" x1="1052.96" y1="-72.6242" x2="1082.62" y2="851.919" gradientUnits="userSpaceOnUse">
<stop offset="0.263446" stop-color="#2F8A39"/>
<stop offset="0.804197"/>
</linearGradient>
<clipPath id="clip0_481_18">
<rect width="1440" height="400" fill="white"/>
</clipPath>
</defs>
</svg>
